<?xml version="1.0" encoding="utf-8"?>
<!-- Generator: Adobe Illustrator 21.1.0, SVG Export Plug-In . SVG Version: 6.00 Build 0)  -->
<svg version="1.1" id="Capa_1" xmlns="http://www.w3.org/2000/svg" xmlns:xlink="http://www.w3.org/1999/xlink" x="0px" y="0px"
	 viewBox="0 0 400 60" style="enable-background:new 0 0 400 60;" xml:space="preserve">
<style type="text/css">
	.st0{fill:#C41419;}
</style>
<g>
	<g>
		<path class="st0" d="M70.3,1.8L57.6,19.2c0,0,66.3,0,69.7,0c3.5,0,3.5,1.3,1.8,3.7c-1.7,2.4-4.7,6.5-6.5,8.9
			c-0.9,1.2-2.5,3.4,2.9,3.4c5.7,0,28.5,0,28.5,0s4.6-6.2,8.4-11.5c5.2-7.1,0.5-21.9-18.3-21.9C127.3,1.8,70.3,1.8,70.3,1.8
			L70.3,1.8z"/>
		<path class="st0" d="M52.4,58.4l25.7-34.9c0,0,28.5,0,31.9,0c3.5,0,3.5,1.3,1.8,3.7c-1.7,2.4-4.7,6.4-6.5,8.8
			c-0.9,1.2-2.5,3.4,2.9,3.4c5.7,0,42.7,0,42.7,0c-3.5,4.9-15.1,18.9-35.7,18.9C98.2,58.4,52.4,58.4,52.4,58.4L52.4,58.4z"/>
		<path class="st0" d="M199.4,39.4l-13.9,18.9h-36.7c0,0,13.9-18.9,13.9-18.9L199.4,39.4L199.4,39.4z"/>
		<polygon class="st0" points="255.7,35.2 165.8,35.2 190.4,1.8 227.1,1.8 213,20.9 229.4,20.9 243.5,1.8 280.2,1.8 255.7,35.2 		
			"/>
		<path class="st0" d="M252.5,39.4l-13.9,18.9h-36.7c0,0,13.9-18.9,13.9-18.9H252.5L252.5,39.4z"/>
		<polygon class="st0" points="0,46.9 54.1,46.9 51.1,50.9 0,50.9 0,46.9 		"/>
		<polygon class="st0" points="0,39.4 59.6,39.4 56.6,43.5 0,43.5 0,39.4 		"/>
		<polygon class="st0" points="0,54.4 48.6,54.4 45.7,58.4 0,58.4 0,54.4 		"/>
		<polygon class="st0" points="400,50.9 346.1,50.9 349.1,46.9 400,46.9 400,50.9 		"/>
		<polygon class="st0" points="400,58.4 340.6,58.4 343.6,54.4 400,54.4 400,58.4 		"/>
		<polygon class="st0" points="354.6,39.4 400,39.4 400,43.5 351.6,43.5 354.6,39.4 		"/>
		<path class="st0" d="M331,1.8l-24.6,33.4h-38.9c0,0,24.6-33.4,24.6-33.4H331L331,1.8z"/>
		<path class="st0" d="M264.4,39.4c0,0-2.7,3.7-4,5.4c-4.6,6.2-0.5,13.5,14.5,13.5c17.4,0,59,0,59,0l13.9-18.9H264.4L264.4,39.4z"/>
	</g>
</g>
</svg>
